<svg xmlns="http://www.w3.org/2000/svg" viewBox="0 0 220 90" width="220" height="90">
  <!-- Background -->
  <rect width="220" height="90" fill="transparent"/>
  
  <!-- Main coffee cup -->
  <g transform="translate(20, 15)">
    <!-- Cup body -->
    <path d="M10 20 Q10 15 15 15 L35 15 Q40 15 40 20 L40 45 Q40 50 35 50 L15 50 Q10 50 10 45 Z" 
          fill="#ffffff" stroke="#2c3e50" stroke-width="2"/>
    
    <!-- Coffee liquid -->
    <path d="M12 22 Q12 18 16 18 L34 18 Q38 18 38 22 L38 42 Q38 46 34 46 L16 46 Q12 46 12 42 Z" 
          fill="#8B4513"/>
    
    <!-- Cup handle -->
    <path d="M40 25 Q48 25 48 32 Q48 39 40 39" 
          fill="none" stroke="#2c3e50" stroke-width="2"/>
    
    <!-- Steam -->
    <g opacity="0.8">
      <path d="M18 8 Q18 3 20 8 Q20 3 22 8" fill="none" stroke="#e74c3c" stroke-width="2"/>
      <path d="M25 6 Q25 1 27 6 Q27 1 29 6" fill="none" stroke="#e74c3c" stroke-width="2"/>
      <path d="M32 8 Q32 3 34 8 Q34 3 36 8" fill="none" stroke="#e74c3c" stroke-width="2"/>
    </g>
    
    <!-- Coffee beans decoration -->
    <ellipse cx="20" cy="30" rx="2" ry="3" fill="#654321" transform="rotate(15 20 30)"/>
    <ellipse cx="30" cy="35" rx="2" ry="3" fill="#654321" transform="rotate(-15 30 35)"/>
    <path d="M20 28 Q20 30 20 32" stroke="#8B4513" stroke-width="0.5"/>
    <path d="M30 33 Q30 35 30 37" stroke="#8B4513" stroke-width="0.5"/>
  </g>
  
  <!-- Brand text -->
  <g transform="translate(80, 25)">
    <text x="0" y="20" font-family="serif" font-size="22" font-weight="bold" fill="#ffffff">
      Hearty
    </text>
    <text x="0" y="45" font-family="serif" font-size="22" font-weight="bold" fill="#ffffff">
      Delights
    </text>
    <text x="0" y="62" font-family="sans-serif" font-size="12" font-weight="600" fill="#27ae60" letter-spacing="2px">
      CAFÉ
    </text>
  </g>
  
  <!-- Decorative elements -->
  <circle cx="190" cy="25" r="3" fill="#e74c3c" opacity="0.6"/>
  <circle cx="200" cy="35" r="2" fill="#27ae60" opacity="0.6"/>
  <circle cx="185" cy="45" r="2.5" fill="#ffffff" opacity="0.4"/>
</svg>